<svg id="Capa_1" enable-background="new 0 0 512 512" height="512" viewBox="0 0 512 512" width="512" xmlns="http://www.w3.org/2000/svg"><g><path d="m472.231 71.637c-25.686-25.687-59.837-39.833-96.164-39.833-36.326 0-70.478 14.146-96.164 39.833l-23.903 23.903-23.903-23.903c-53.025-53.025-139.303-53.024-192.328 0-52.193 52.193-53.012 136.603-2.457 189.807-22.006 21.454-35.695 51.4-35.695 84.488 0 65.091 52.956 118.046 118.046 118.046 33.072 0 63.005-13.677 84.457-35.664l51.88 51.882 216.232-216.232c53.025-53.025 53.024-139.302-.001-192.327zm-352.568 362.334c-48.544 0-88.039-39.494-88.039-88.038 0-48.545 39.494-88.039 88.039-88.039s88.039 39.494 88.039 88.039c-.001 48.544-39.495 88.038-88.039 88.038zm331.351-191.225-195.014 195.013-33.653-33.652c9.771-17.18 15.361-37.036 15.361-58.174 0-65.091-52.956-118.046-118.046-118.046-21.138 0-40.993 5.59-58.174 15.361l-.502-.502c-41.324-41.325-41.323-108.566.002-149.891 20.019-20.019 46.635-31.043 74.945-31.043s54.927 11.025 74.945 31.043l45.122 45.123 45.122-45.123c41.325-41.325 108.567-41.324 149.892 0 41.324 41.326 41.324 108.566 0 149.891z"/><path d="m105.531 347.572-18.847-18.847-21.218 21.218 40.065 40.067 68.329-68.33-21.219-21.218z"/></g></svg>