<svg id="Layer_1" enable-background="new 0 0 496 496" height="212" viewBox="0 0 496 496" width="212" xmlns="http://www.w3.org/2000/svg"><path d="m496 200c-16.51 75.45-87.6 136-168 136-92.78 0-168-75.22-168-168 0-80.4 52.561-151.49 128.011-168-16.011 0-25.021 0-40.011 0-136.97 0-248 111.03-248 248s111.03 248 248 248 248-111.03 248-248c0-14.99 0-32 0-48z" fill="#ffdf81"/><path d="m312 352c-92.78 0-168-75.22-168-168 0-52.61 22.51-101.24 59.21-133.18-27.14 31.11-43.21 72.72-43.21 117.18 0 143.398 168.991 222.916 280.84 124.12-31.93 36.2-78.56 59.88-128.84 59.88z" fill="#ffcd76"/><path d="m32 248c0 131.6 102.49 239.25 232 247.5-144.868 9.04-264-105.835-264-247.5 0-136.97 111.03-248 248-248h32c-136.97 0-248 111.03-248 248z" fill="#f9ecb4"/><path d="m464 96s-56 0-56 64c0-64-56-64-56-64s56 0 56-64c0 64 56 64 56 64z" fill="#ffcd76"/><path d="m352 208s-56 0-56 64c0-64-56-64-56-64s56 0 56-64c0 64 56 64 56 64z" fill="#ffcd76"/><path d="" fill="#f9ecb4"/><circle cx="440" cy="336" fill="#ffcd76" r="16"/><circle cx="416" cy="360" fill="#ffcd76" r="8"/><g fill="#f9ecb4"><circle cx="152" cy="64" r="16"/><circle cx="128" cy="88" r="8"/></g></svg>