<svg id="Layer_1" enable-background="new 0 0 512 512" height="212" viewBox="0 0 512 512" width="212" xmlns="http://www.w3.org/2000/svg"><g fill="#99d0ff"><path d="m224 512c-22.056 0-40-17.944-40-40 0-4.418 3.582-8 8-8s8 3.582 8 8c0 13.234 10.767 24 24 24s24-10.766 24-24v-48c0-4.418 3.582-8 8-8s8 3.582 8 8v48c0 22.056-17.944 40-40 40z"/><circle cx="256" cy="392" r="8"/><path d="m256 368c-4.418 0-8-3.582-8-8v-64c0-4.418 3.582-8 8-8s8 3.582 8 8v64c0 4.418-3.582 8-8 8z"/></g><path d="m424 352c0-30.928-25.072-56-56-56s-56 25.072-56 56c0-30.928-25.072-56-56-56s-56 25.072-56 56c0-30.928-25.072-56-56-56s-56 25.072-56 56v-16c0-101.62 66.38-184 168-184s168 82.38 168 184z" fill="#add9ff"/><path d="m424 336v16c0-30.93-25.07-56-56-56s-56 25.07-56 56c0-30.93-25.07-56-56-56s-56 25.07-56 56v-144c0-30.93 25.07-56 56-56 101.62 0 168 82.38 168 184z" fill="#5989b3"/><path d="m122.86 300.13c-20.45 8.34-34.86 28.42-34.86 51.87v-16c0-109.054 75.918-192.805 184-183.3-80.72 7.13-136.28 68.12-149.14 147.43z" fill="#d6ecff"/><path d="m312 208v144c0-30.93-25.07-56-56-56s-56 25.07-56 56v-144c0-30.93 25.07-56 56-56s56 25.07 56 56z" fill="#99d0ff"/><path d="m112 176c-4.418 0-8-3.581-8-8v-160c0-4.418 3.582-8 8-8s8 3.582 8 8v160c0 4.419-3.582 8-8 8z" fill="#436786"/><path d="m400 176c-4.418 0-8-3.581-8-8v-160c0-4.418 3.582-8 8-8s8 3.582 8 8v160c0 4.419-3.582 8-8 8z" fill="#436786"/><path d="m160 144c-4.418 0-8-3.581-8-8v-96c0-4.418 3.582-8 8-8s8 3.582 8 8v96c0 4.419-3.582 8-8 8z" fill="#5989b3"/><path d="m352 144c-4.418 0-8-3.581-8-8v-96c0-4.418 3.582-8 8-8s8 3.582 8 8v96c0 4.419-3.582 8-8 8z" fill="#5989b3"/><path d="m208 112c-4.418 0-8-3.581-8-8v-96c0-4.418 3.582-8 8-8s8 3.582 8 8v96c0 4.419-3.582 8-8 8z" fill="#436786"/><path d="m256 96c-4.418 0-8-3.581-8-8v-80c0-4.418 3.582-8 8-8s8 3.582 8 8v80c0 4.419-3.582 8-8 8z" fill="#5989b3"/><path d="m304 112c-4.418 0-8-3.581-8-8v-96c0-4.418 3.582-8 8-8s8 3.582 8 8v96c0 4.419-3.582 8-8 8z" fill="#436786"/><circle cx="256" cy="120" fill="#5989b3" r="8"/></svg>