<svg id="Layer_1" enable-background="new 0 0 495.998 495.998" height="212" viewBox="0 0 495.998 495.998" width="212" xmlns="http://www.w3.org/2000/svg"><g fill="#add9ff"><path d="m208.405 298.917c1.453-1.453 2.344-3.464 2.344-5.667 0-7.213-8.818-10.694-13.77-5.533l-40.288 40.283h-60.692c-4.418 0-8 3.582-8 8s3.582 8 8 8h44.691l-43.718 43.713c-5.056 5.055-1.407 13.657 5.656 13.657 2.047 0 4.095-.781 5.656-2.343l43.714-43.709v44.682c0 4.418 3.582 8 8 8s8-3.582 8-8v-60.681z"/><path d="m287.602 197.083c-5.043 5.043-1.419 13.657 5.657 13.657 2.048 0 4.095-.781 5.657-2.343l40.398-40.397h60.685c4.418 0 8-3.581 8-8s-3.582-8-8-8h-44.685l43.713-43.713c3.124-3.124 3.124-8.189 0-11.313-3.125-3.124-8.189-3.124-11.314 0l-43.713 43.713v-44.687c0-4.419-3.582-8-8-8s-8 3.581-8 8v60.686z"/><path d="m240 139.315v44.687c0 4.418 3.582 8 8 8s8-3.582 8-8v-44.688l45.656-45.657c3.124-3.124 3.124-8.189 0-11.313-3.125-3.124-8.189-3.124-11.314 0l-34.342 34.342v-52.688c0-4.418-3.582-8-8-8s-8 3.582-8 8v52.689l-34.344-34.344c-3.125-3.124-8.189-3.124-11.314 0-3.124 3.124-3.124 8.189 0 11.313z"/><path d="m256 348.688v-36.688c0-4.418-3.582-8-8-8s-8 3.582-8 8v36.686l-45.658 45.658c-3.124 3.124-3.124 8.189 0 11.313 3.125 3.124 8.189 3.124 11.314 0l34.344-34.344v60.687c0 4.418 3.582 8 8 8s8-3.582 8-8v-60.685l34.342 34.342c1.563 1.562 3.609 2.343 5.657 2.343 7.061 0 10.714-8.6 5.657-13.657z"/><path d="m95.999 168h60.685l40.407 40.407c3.125 3.125 8.189 3.124 11.314 0 3.124-3.124 3.124-8.189 0-11.313l-40.407-40.407v-60.687c0-4.419-3.582-8-8-8s-8 3.581-8 8v44.686l-43.713-43.713c-3.125-3.124-8.189-3.124-11.314 0-3.124 3.124-3.124 8.189 0 11.313l43.713 43.714h-44.685c-4.418 0-8 3.581-8 8s3.582 8 8 8z"/><path d="m399.999 328h-60.685l-40.398-40.397c-3.125-3.124-8.189-3.124-11.314 0-3.124 3.124-3.124 8.189 0 11.313l40.397 40.398v60.686c0 4.418 3.582 8 8 8s8-3.582 8-8v-44.685l43.713 43.712c3.125 3.125 8.189 3.124 11.314 0 3.124-3.124 3.124-8.189 0-11.313l-43.712-43.714h44.685c4.418 0 8-3.582 8-8s-3.582-8-8-8z"/><path d="m432 240h-52.69l34.345-34.344c3.124-3.124 3.124-8.19 0-11.314-3.125-3.124-8.19-3.124-11.315 0l-45.657 45.658h-44.686c-4.418 0-8 3.581-8 8s3.582 8 8 8h44.688l45.656 45.656c3.126 3.125 8.189 3.124 11.315 0 3.124-3.124 3.124-8.189 0-11.314l-34.343-34.342h52.687c4.418 0 8-3.581 8-8s-3.582-8-8-8z"/><path d="m90.341 301.656c3.126 3.125 8.189 3.124 11.314 0l45.656-45.656h36.687c4.418 0 8-3.581 8-8s-3.582-8-8-8h-36.684l-45.658-45.658c-3.125-3.124-8.189-3.124-11.314 0-3.124 3.124-3.124 8.189 0 11.314l34.344 34.344h-60.688c-4.418 0-8 3.581-8 8s3.582 8 8 8h60.686l-34.343 34.342c-3.124 3.124-3.124 8.19 0 11.314z"/></g><circle cx="248" cy="248.001" fill="#99d0ff" r="63.999"/><circle cx="248" cy="31.999" fill="#add9ff" r="31.999"/><circle cx="79.998" cy="79.999" fill="#d6ecff" r="31.999"/><circle cx="416" cy="79.999" fill="#d6ecff" r="31.999"/><circle cx="79.998" cy="416.001" fill="#d6ecff" r="31.999"/><circle cx="416" cy="416.001" fill="#d6ecff" r="31.999"/><circle cx="248" cy="463.999" fill="#add9ff" r="31.999"/><circle cx="463.999" cy="248" fill="#add9ff" r="31.999"/><circle cx="31.999" cy="248" fill="#add9ff" r="31.999"/></svg>