<svg id="Layer_1" enable-background="new 0 0 512 512" height="212" viewBox="0 0 512 512" width="212" xmlns="http://www.w3.org/2000/svg"><g fill="#ffb562"><path d="m256 80c-4.418 0-8-3.581-8-8v-64c0-4.418 3.582-8 8-8s8 3.582 8 8v64c0 4.419-3.582 8-8 8z"/><path d="m256 512c-4.418 0-8-3.582-8-8v-64c0-4.418 3.582-8 8-8s8 3.582 8 8v64c0 4.418-3.582 8-8 8z"/><path d="m504 264h-64.001c-4.418 0-8-3.582-8-8 0-4.419 3.582-8 8-8h64.001c4.418 0 8 3.581 8 8 0 4.418-3.582 8-8 8z"/><path d="m71.999 264h-63.999c-4.418 0-8-3.582-8-8 0-4.419 3.582-8 8-8h63.999c4.418 0 8 3.581 8 8 0 4.418-3.582 8-8 8z"/><path d="m127.999 136c-2.048 0-4.095-.781-5.657-2.343l-56-56c-3.124-3.124-3.124-8.189 0-11.313 3.125-3.124 8.189-3.124 11.314 0l56 56c5.056 5.055 1.405 13.656-5.657 13.656z"/><path d="m383.999 136c-7.06 0-10.715-8.599-5.657-13.657l56-56c3.125-3.124 8.189-3.124 11.314 0 3.124 3.124 3.124 8.189 0 11.313l-56 56c-1.562 1.563-3.609 2.344-5.657 2.344z"/><path d="m439.999 448c-2.048 0-4.095-.781-5.657-2.343l-56-56c-3.124-3.124-3.124-8.189 0-11.313 3.125-3.124 8.189-3.124 11.314 0l56 56c5.056 5.055 1.405 13.656-5.657 13.656z"/><path d="m71.999 448c-7.06 0-10.715-8.599-5.657-13.657l56-56c3.125-3.124 8.189-3.124 11.314 0 3.124 3.124 3.124 8.189 0 11.313l-56 56c-1.562 1.563-3.609 2.344-5.657 2.344z"/></g><circle cx="255.999" cy="256" fill="#ffcd76" r="192"/><circle cx="255.999" cy="256" fill="#ffb562" r="152"/><path d="m256 384c-70.579 0-128-57.42-128-128s57.421-128 128-128c57.5 0 108.267 38.686 123.454 94.078 1.169 4.261-1.339 8.662-5.6 9.831-4.266 1.165-8.663-1.339-9.83-5.6-13.288-48.462-57.71-82.309-108.024-82.309-61.757 0-112 50.243-112 112s50.243 112 112 112c50.123 0 94.5-33.685 107.916-81.915 1.185-4.256 5.599-6.745 9.851-5.563 4.257 1.184 6.748 5.594 5.564 9.851-15.335 55.127-66.05 93.627-123.331 93.627z" fill="#ffcd76"/><path d="m375.999 264c-4.418 0-8-3.578-8-8 0-4.418 3.577-8 8-8 4.528 0 8 3.707 8 8 0 4.292-3.472 8-8 8z" fill="#ffcd76"/></svg>